<?xml version="1.0" encoding="utf-8"?>
<svg xmlns="http://www.w3.org/2000/svg" xmlns:xlink="http://www.w3.org/1999/xlink" style="margin: auto; background: none; display: block; shape-rendering: auto;" width="80px" height="80px" viewBox="0 0 100 100" preserveAspectRatio="xMidYMid">
<g transform="rotate(0 50 50)">
  <rect x="47.5" y="13" rx="2.5" ry="2.52" width="5" height="18" fill="#5b7c82">
    <animate attributeName="opacity" values="1;0" keyTimes="0;1" dur="2.857142857142857s" begin="-2.6190476190476195s" repeatCount="indefinite"></animate>
  </rect>
</g><g transform="rotate(30 50 50)">
  <rect x="47.5" y="13" rx="2.5" ry="2.52" width="5" height="18" fill="#5b7c82">
    <animate attributeName="opacity" values="1;0" keyTimes="0;1" dur="2.857142857142857s" begin="-2.3809523809523814s" repeatCount="indefinite"></animate>
  </rect>
</g><g transform="rotate(60 50 50)">
  <rect x="47.5" y="13" rx="2.5" ry="2.52" width="5" height="18" fill="#5b7c82">
    <animate attributeName="opacity" values="1;0" keyTimes="0;1" dur="2.857142857142857s" begin="-2.1428571428571432s" repeatCount="indefinite"></animate>
  </rect>
</g><g transform="rotate(90 50 50)">
  <rect x="47.5" y="13" rx="2.5" ry="2.52" width="5" height="18" fill="#5b7c82">
    <animate attributeName="opacity" values="1;0" keyTimes="0;1" dur="2.857142857142857s" begin="-1.904761904761905s" repeatCount="indefinite"></animate>
  </rect>
</g><g transform="rotate(120 50 50)">
  <rect x="47.5" y="13" rx="2.5" ry="2.52" width="5" height="18" fill="#5b7c82">
    <animate attributeName="opacity" values="1;0" keyTimes="0;1" dur="2.857142857142857s" begin="-1.666666666666667s" repeatCount="indefinite"></animate>
  </rect>
</g><g transform="rotate(150 50 50)">
  <rect x="47.5" y="13" rx="2.5" ry="2.52" width="5" height="18" fill="#5b7c82">
    <animate attributeName="opacity" values="1;0" keyTimes="0;1" dur="2.857142857142857s" begin="-1.4285714285714288s" repeatCount="indefinite"></animate>
  </rect>
</g><g transform="rotate(180 50 50)">
  <rect x="47.5" y="13" rx="2.5" ry="2.52" width="5" height="18" fill="#5b7c82">
    <animate attributeName="opacity" values="1;0" keyTimes="0;1" dur="2.857142857142857s" begin="-1.1904761904761907s" repeatCount="indefinite"></animate>
  </rect>
</g><g transform="rotate(210 50 50)">
  <rect x="47.5" y="13" rx="2.5" ry="2.52" width="5" height="18" fill="#5b7c82">
    <animate attributeName="opacity" values="1;0" keyTimes="0;1" dur="2.857142857142857s" begin="-0.9523809523809526s" repeatCount="indefinite"></animate>
  </rect>
</g><g transform="rotate(240 50 50)">
  <rect x="47.5" y="13" rx="2.5" ry="2.52" width="5" height="18" fill="#5b7c82">
    <animate attributeName="opacity" values="1;0" keyTimes="0;1" dur="2.857142857142857s" begin="-0.7142857142857144s" repeatCount="indefinite"></animate>
  </rect>
</g><g transform="rotate(270 50 50)">
  <rect x="47.5" y="13" rx="2.5" ry="2.52" width="5" height="18" fill="#5b7c82">
    <animate attributeName="opacity" values="1;0" keyTimes="0;1" dur="2.857142857142857s" begin="-0.4761904761904763s" repeatCount="indefinite"></animate>
  </rect>
</g><g transform="rotate(300 50 50)">
  <rect x="47.5" y="13" rx="2.5" ry="2.52" width="5" height="18" fill="#5b7c82">
    <animate attributeName="opacity" values="1;0" keyTimes="0;1" dur="2.857142857142857s" begin="-0.23809523809523814s" repeatCount="indefinite"></animate>
  </rect>
</g><g transform="rotate(330 50 50)">
  <rect x="47.5" y="13" rx="2.5" ry="2.52" width="5" height="18" fill="#5b7c82">
    <animate attributeName="opacity" values="1;0" keyTimes="0;1" dur="2.857142857142857s" begin="0s" repeatCount="indefinite"></animate>
  </rect>
</g>
<!-- [ldio] generated by https://loading.io/ --></svg>